<svg width="297" height="297" xmlns="http://www.w3.org/2000/svg">

 <g>
  <title>background</title>
  <rect fill="none" id="canvas_background" height="402" width="582" y="-1" x="-1"/>
 </g>
 <g>
  <title>Layer 1</title>
  <g id="svg_1">
   <path fill="#ffffff" id="svg_2" d="m47.159,115.929l0,53.899l202.682,0l0,-53.899c0,-14.244 -11.588,-25.832 -25.832,-25.832l-151.018,0c-14.244,0 -25.832,11.588 -25.832,25.832z"/>
   <path fill="#ffffff" id="svg_3" d="m249.841,225.963l0,-40.238l-202.682,0l0,40.238c0,14.244 11.588,25.832 25.832,25.832l151.018,0c14.244,0 25.832,-11.588 25.832,-25.832zm-170.887,11.922c-11.232,0 -20.369,-9.137 -20.369,-20.367c0,-11.23 9.137,-20.367 20.369,-20.367c11.231,0 20.368,9.137 20.368,20.367c0,11.23 -9.137,20.367 -20.368,20.367zm139.092,0c-11.231,0 -20.368,-9.137 -20.368,-20.367c0,-11.23 9.137,-20.367 20.368,-20.367c11.232,0 20.369,9.137 20.369,20.367c0,11.23 -9.137,20.367 -20.369,20.367z"/>
   <path fill="#ffffff" id="svg_4" d="m72.991,267.691c-12.019,0 -22.858,-5.113 -30.48,-13.271l0,18.984c0,13.011 11.588,23.596 25.832,23.596l9.191,0c14.244,0 25.832,-10.585 25.832,-23.596l0,-5.713l-30.375,0z"/>
   <path fill="#ffffff" id="svg_5" d="m224.009,267.691l-30.375,0l0,5.713c0,13.011 11.588,23.596 25.832,23.596l9.191,0c14.244,0 25.832,-10.585 25.832,-23.596l0,-18.984c-7.622,8.158 -18.462,13.271 -30.48,13.271z"/>
   <path fill="#ffffff" id="svg_6" d="m89.223,74.2l20.583,0l-2.024,-7.487l81.78,0l-2.226,7.487l20.73,0l18.263,-61.43c1.564,-5.26 -1.432,-10.792 -6.691,-12.355c-5.264,-1.567 -10.791,1.433 -12.355,6.691l-2.529,8.51l-110.782,0l-2.235,-8.271c-1.432,-5.297 -6.88,-8.431 -12.183,-6.999c-5.297,1.432 -8.431,6.887 -6.999,12.184l16.668,61.67zm109.622,-38.713l-3.377,11.362c-0.044,-0.002 -0.086,-0.008 -0.13,-0.008l-92.927,0l-3.068,-11.354l99.502,0z"/>
  </g>
  <g id="svg_7"/>
  <g id="svg_8"/>
  <g id="svg_9"/>
  <g id="svg_10"/>
  <g id="svg_11"/>
  <g id="svg_12"/>
  <g id="svg_13"/>
  <g id="svg_14"/>
  <g id="svg_15"/>
  <g id="svg_16"/>
  <g id="svg_17"/>
  <g id="svg_18"/>
  <g id="svg_19"/>
  <g id="svg_20"/>
  <g id="svg_21"/>
 </g>
</svg>